<?xml version="1.0" encoding="UTF-8" standalone="no"?>
<svg
   xmlns:dc="http://purl.org/dc/elements/1.1/"
   xmlns:cc="http://creativecommons.org/ns#"
   xmlns:rdf="http://www.w3.org/1999/02/22-rdf-syntax-ns#"
   xmlns:svg="http://www.w3.org/2000/svg"
   xmlns="http://www.w3.org/2000/svg"
   xmlns:sodipodi="http://sodipodi.sourceforge.net/DTD/sodipodi-0.dtd"
   xmlns:inkscape="http://www.inkscape.org/namespaces/inkscape"
   version="1.0"
   width="676.000000pt"
   height="676.000000pt"
   viewBox="0 0 676.000000 676.000000"
   preserveAspectRatio="xMidYMid meet"
   id="svg202"
   sodipodi:docname="safari-pinned-tab.svg"
   inkscape:version="0.92.5 (2060ec1f9f, 2020-04-08)">
  <defs
     id="defs206" />
  <sodipodi:namedview
     pagecolor="#ffffff"
     bordercolor="#666666"
     borderopacity="1"
     objecttolerance="10"
     gridtolerance="10"
     guidetolerance="10"
     inkscape:pageopacity="0"
     inkscape:pageshadow="2"
     inkscape:window-width="1854"
     inkscape:window-height="1136"
     id="namedview204"
     showgrid="false"
     inkscape:zoom="0.52366864"
     inkscape:cx="124.17684"
     inkscape:cy="828.58111"
     inkscape:window-x="66"
     inkscape:window-y="27"
     inkscape:window-maximized="1"
     inkscape:current-layer="svg202" />
  <metadata
     id="metadata2">
Created by potrace 1.14, written by Peter Selinger 2001-2017
<rdf:RDF>
  <cc:Work
     rdf:about="">
    <dc:format>image/svg+xml</dc:format>
    <dc:type
       rdf:resource="http://purl.org/dc/dcmitype/StillImage" />
    <dc:title></dc:title>
  </cc:Work>
</rdf:RDF>
</metadata>
  <path
     style="fill:#000000;stroke:none;stroke-width:0.1"
     inkscape:connector-curvature="0"
     id="path4"
     d="m 16.6,65 c -0.7,1.4 0,546 0.7,546.6 0.4,0.5 50.4,0.8 111,0.9 60.6,0 110.8,0.4 111.5,0.8 0.6,0.5 1.2,0.4 1.2,-0.2 0,-1 3.8,-0.6 4.9,0.5 0.3,0.4 -0.2,0.4 -1.1,0.1 -1.1,-0.4 -1.7,-0.2 -1.5,0.5 0.1,0.7 -0.2,1.2 -0.8,1.3 -1.7,0.1 1.4,0.4 2.8,-0.9 1.4,-1.3 2.7,-2.2 2.9,-2 0.2,0.2 2,0.4 4,0.6 2,0.1 3.4,0.6 3.2,1 -0.6,1 2.6,0.5 4.5,-0.6 1,-0.6 1.2,-0.5 0.7,0.2 -0.4,0.7 -0.3,1.2 0.3,1.2 0.5,0 1.7,0.3 2.7,0.7 1.3,0.5 1.5,0.3 0.9,-0.8 -0.7,-1.1 -0.6,-1.2 0.6,-0.3 0.8,0.5 2.4,0.9 3.6,0.8 1.2,0 2,0.3 1.7,0.7 -0.3,0.5 0.9,0.7 2.5,0.5 1.7,-0.2 2.8,0.1 2.5,0.5 -0.3,0.5 -0.1,0.9 0.5,0.9 0.5,0 1.1,-0.5 1.3,-1.2 0.3,-0.7 0.7,-0.5 1.1,0.6 0.5,1.2 0.3,1.5 -0.6,1 -0.9,-0.5 -0.9,-0.4 0,0.6 0.9,1 13.5,0.1 14.9,0.7 1.2,0.4 1.5,0.3 1,-0.5 -1,-1.7 0.3,-1.5 2.1,0.4 1.3,1.2 3.5,-0.7 3.9,-0.3 0.4,0.4 1.9,0 3.3,-1 3.03708,0.27977 3.1,0.3 6,0.6 0.8,0.2 1,-0.2 0.5,-1 -0.5,-0.9 -0.3,-0.9 0.7,-0.3 0.8,0.5 1.8,0.9 2.2,0.9 0.5,0 3.2,1 2.2,-0.5 -0.8,-1.3 -0.7,-1.3 0.8,-0.1 1.1,0.9 1.7,1 1.7,0.2 0,-0.6 1,-0.1 2.1,1 1.6,1.6 3.6,-0.9 3.5,-1.5 -0.2,-0.6 -0.1,-0.8 0.1,-0.3 0.3,0.4 0.9,0.5 1.4,0.1 0.5,-0.3 0.9,0 0.9,0.7 0,0.7 0.6,0.4 1.4,-0.7 2.1161,0.52733 -1.4,0.7 1.3,0 2.40636,0.73146 1.9,-0.4 2.7,-0.7 0.9,-0.4 1.5,-0.1 1.3,0.5 -0.1,0.6 2.1,1.4 1.6,0.2 -0.4,-1.2 -0.3,-1.5 0.6,-1 0.7,0.5 2.3,-0.2 1.7,-0.6 -0.6,-0.4 -0.1,-0.6 1.2,-0.5 2.4,0.1 3.2839,1.21536 5.9,0.4 1.7,-1.5 2.1,-1.5 2.6,-0.3 0.3,0.8 18.9,-0.6 18.8,-1.8 -0.1,-0.3 0.2,-0.5 0.7,-0.4 0.4,0.2 2.9,-0.8 4.4,-0.6 1.3,0.1 2.9,0.3 3.6,0.3 0.7,0.1 1,0.7 0.7,1.3 -0.4,0.7 0,0.5 0.8,-0.4 1.1,-1.4 1.6,-1.5 2.7,-0.5 0.7,0.7 1,0.7 0.7,0.2 -0.3,-0.6 2.1,-1 6.3,-1.1 4.6,0 6.7,0.4 6.2,1 -0.4,0.8 -0.1,0.8 0.9,0 0.9,-0.7 12.6,-1 34.1,-1 18.1,0.1 32.9,-0.1 32.9,-0.4 0.1,-0.3 0.3,-12.1 0.4,-26.2 0.2,-14.2 0.5,-26.5 0.9,-27.3 0.3,-0.8 0.1,-1.5 -0.4,-1.5 -0.6,0 -0.6,-0.9 -0.1,-2.2 0.4,-1.3 0.6,-2.9 0.4,-3.6 -0.3,-0.6 0.1,-1.37903 0.8,-1.37903 0.7,0 15.97201,-11.2412 17.1,-12.02097 0.4,1.2 0.3,2 -0.1,1.8 -0.4,-0.3 0.8,1.2 2.3,1.9 1.5,0.8 2.4,1 2.1,0.5 -0.4,-0.6 0,-1 0.9,-1 0.8,0 1.6,-0.5 1.8,-1.2 0.3,-0.7 0.7,-0.5 1.1,0.6 0.4,0.9 0.3,1.5 -0.2,1.1 -0.5,-0.3 -1.2,-0.1 -1.5,0.4 -1.1,1.7 2.4,0.5 3.7,-1.4 1,-1.3 1.6,-1.5 2.1,-0.6 0.4,0.6 1.2,0.8 1.8,0.5 0.7,-0.4 0.8,-0.2 0.4,0.5 -0.6,0.9 -1.1,0.9 -2.4,-0.1 -1.1,-0.9 -1,-0.5 0.3,1.4 2.2,3 3,3.4 4.1,1.6 0.4,-0.6 0.3,-0.8 -0.4,-0.4 -0.6,0.3 -1.3,0.2 -1.6,-0.3 -0.5,-0.7 1.4,-2.1 2.8,-2.1 0.1,0 0.2,1.6 0.3,3.5 0,1.9 -0.3,3.3 -0.7,3 -0.3,-0.2 -0.7,0.2 -0.7,1 0,0.8 0.4,1.2 0.8,0.9 0.4,-0.2 0.8,13.6 0.9,30.8 0,17.1 0.3,31.4 0.6,31.7 0.8,0.8 107.7,0.8 109.4,0 1.3,-0.6 1.5,-9.5 1.5,-70.8 0,-55.1 0.6,-72.1 0.7,-75.7 0.2,-3.6 0.7,-5 1.5,-4.7 1.6,0.6 9.3,-1.2 10.2,-1.5 0.6,-0.2 0.8,-0.9 0.4,-1.5 -0.4,-0.7 -0.1,-0.7 0.9,0.1 1.1,0.9 1.8,1 2.3,0.2 0.3,-0.5 0.1,-1 -0.5,-1 -0.6,0 -0.8,-0.5 -0.4,-1.1 0.3,-0.6 5,-0.9 4.4,-0.9 -0.5,0 -1,-0.5 -1,-1.1 0,-0.5 0.4,-0.8 0.9,-0.4 0.5,0.3 1.7,-0.3 2.7,-1.2 1.6,-1.6 3.1,0 2.3,-1.4 -0.5,-1.1 -0.6,-1.9 -0.2,-1.8 2,0.3 3.4,-0.2 2.8,-1.1 -0.3,-0.5 -0.1,-1 0.4,-1 0.6,0 1.1,0.6 1.1,1.2 0,0.9 0.3,0.8 1,-0.2 0.6,-0.9 0.5,-1.7 -0.2,-2.1 -0.7,-0.4 -0.7,-0.9 0,-1.3 0.5,-0.3 11.6,-16.3 10.6,-15.9 -1.2,0.5 -1.5,0.3 -0.9,-0.6 0.4,-0.7 1.8,-1.1 3.1,-0.8 1.3,0.2 2.5,-0.1 2.8,-0.9 0.3,-0.8 -1.5,-3.7 -1.1,-2.4 0.3,1 -0.2,1.6 -1.4,1.7 -2.3,0.2 -3.4,-1.3 -1.8,-2.3 0.8,-0.4 0.9,-0.3 0.5,0.4 -0.4,0.7 -0.2,1.2 0.3,1.2 1.5,0 1.4,-2.7 -0.1,-3.4 -0.7,-0.3 -0.2,-0.3 1.1,0 1.8,0.5 2.2,0.3 1.5,-0.7 -1.3,-2.2 -1.6,-5.1 -0.3,-4.3 0.7,0.4 0.9,0 0.5,-1.4 -0.4,-1.2 -0.1,-2.2 0.7,-2.5 0.8,-0.3 1.4,0.1 1.4,0.9 0,0.7 -0.5,1.1 -1,0.7 -0.5,-0.3 -0.4,0.5 0.3,1.7 0.8,1.5 0.8,2 0.1,1.6 -0.6,-0.4 -1.1,-0.2 -1.1,0.4 0,2 2.3,0.5 4.1,-2.6 2.1,-3.5 2.4,-5.5 0.5,-2.8 -0.8,1 -1.7,1.6 -2,1.3 -0.3,-0.3 0.4,-1.6 1.6,-2.8 1.9,-2.2 2,-2.3 0.2,-1.7 -1.5,0.5 -2,0.1 -2,-1.4 0,-1.1 0.4,-2 0.8,-2 0.4,0 0.8,-0.9 0.8,-2 0,-1.1 -0.4,-2 -0.8,-2 -0.5,0 -1.7,-0.7 -2.8,-1.6 -1.6,-1.3 -1.6,-1.5 -0.1,-1 2.2,0.7 2.2,0.1 -0.3,-2.4 -2.2,-2.2 -3.5,-2.7 -2.4,-0.8 0.4,0.7 0.3,0.8 -0.5,0.4 -0.9,-0.6 -0.9,-1.1 0.1,-2.4 1.1,-1.4 1,-1.5 -0.6,-0.9 -2.1,0.8 -6.2,-3.5 -5.9,-2.9 0.3,0.5 0.2,0.6 -0.4,0.3 -0.5,-0.3 -0.8,-1.9 -0.7,-3.5 0.1,-2.3 -0.4,-3.2 -2.2,-4.1 -2.1,-0.9 -4,-4.3 -5.6,-5.9 -0.9,-0.9 -2,-2.5 -3.2,-3.7 -0.9,-0.9 -1.4,-2.1 -1.1,-2.6 0.4,-0.5 0,-0.9 -0.7,-0.9 -0.7,-0.1 -0.2,-0.7 1.2,-1.5 2.1,-1.2 2.2,-1.4 0.5,-1.2 -1.1,0.1 -2.5,0.6 -3.2,1 -0.7,0.5 -1,-0.3 -0.9,-2.3 0.2,-2.2 -0.2,-2.9 -1.1,-2.6 -1.5,0.6 -1.7,-1.5 -0.3,-3.2 0.6,-0.6 0.7,-1 0.4,-0.7 -0.4,0.2 -1.9,-0.2 -3.4,-1 -1.5,-0.8 -3.1,-1.1 -3.6,-0.7 -0.5,0.4 -0.2,-0.1 0.5,-1.1 0.8,-0.9 1.1,-2 0.7,-2.4 -0.3,-0.3 -0.6,-0.1 -0.6,0.5 0,0.7 -0.8,1.2 -1.7,1.1 -1.1,0 -1.3,-0.3 -0.5,-0.6 1.7,-0.7 1.5,-1.9 -0.3,-2.1 -0.8,-0.1 -2.1,-0.3 -2.9,-0.4 -0.8,-0.1 -1.4,-0.6 -1.3,-1.2 0.1,-0.6 -0.4,-1 -1,-0.9 -0.7,0.2 -1.3,-0.4 -1.3,-1.2 0,-0.8 -0.6,-1.2 -1.3,-0.9 -0.8,0.3 -1.3,-0.3 -1.3,-1.6 0,-1.1 0.7,-2 1.6,-2.1 1,0 0.9,-0.3 -0.5,-0.9 l -2,-0.9 h 2 c 1.5,-0.1 1.7,-0.3 0.7,-1 -1,-0.6 -1.4,-3.8 -1.5,-11.8 0,-6 0.3,-11.5 0.7,-12.1 0.4,-0.7 0.4,-1.2 -0.1,-1.2 -0.4,0 -0.8,-31.5 -0.8,-70 0,-61.8 0.1,-70 1.5,-70.1 0.8,-0.1 12.4,-0.2 25.8,-0.3 17.1,-0.1 24.5,-0.4 25,-1.3 0.5,-0.8 0.8,-104.2 0.3,-109.8 -0.1,-1.1 -491.9,-1.4 -493.6,-0.3 -0.6,0.4 -0.9,21.3 -0.8,55.5 0.1,30.1 0.2,55 0.2,55.4 0.1,0.3 74.4,0.5 165.1,0.5 l 165,-0.1 v 86.5 86.6 l -3,2.4 c -1.6,1.3 -2.6,2.8 -2.3,3.3 0.3,0.5 -3.6,5 -4.9,4 -0.8,-0.7 -1.8,-1 -2.1,-0.7 -0.4,0.4 -5.1,-2.1 -4.2,-3.6 0.3,-0.4 -0.3,-1.4 -1.2,-2.1 -1,-0.8 -1.4,-0.9 -1,-0.2 0.4,0.6 0.3,1.5 -0.3,1.8 -0.6,0.4 -1,0.3 -0.9,-0.2 0.4,-2.5 -0.3,-3.5 -2.1,-3 -1,0.3 -1.8,0.1 -1.7,-0.3 0.1,-0.5 -0.7,-1.6 -1.8,-2.5 -1.1,-0.9 -2.5,-1.2 -2.6,-0.4 0,0.8 -0.4,0.4 -0.9,-0.9 -0.5,-1.2 -1.7,-2.2 -2.5,-2.2 -0.9,0 -1.3,-0.5 -1,-1 0.3,-0.6 0.1,-1 -0.5,-1 -0.6,0 -0.8,-0.5 -0.4,-1.3 0.5,-0.8 0.2,-0.8 -0.9,0.2 -1.8,1.4 -2.7,-1.4 -3.2,-1.4 -0.6,0 -0.9,-0.5 -0.9,-1.1 0.1,-0.6 -2.3,-0.6 -2.2,0 0.2,0.6 0.1,0.8 -0.2,0.3 -0.7,-1.3 -6.2,-3.8 -7.1,-3.3 -0.5,0.3 -1.4,-0.1 -2.1,-0.9 -1,-1.2 -0.6,-2.3 -1.6,-1.2 -0.3,0.3 -1.6,-0.1 -2.8,-0.9 -1.3,-0.8 -2.6,-1.1 -3.1,-0.7 -0.4,0.5 -0.5,0.2 -0.1,-0.5 0.9,-1.6 -2.4,-1.3 -3.7,0.3 -0.5,0.5 -0.5,-0.1 -0.1,-1.5 0.6,-2.1 0.5,-2.3 -0.8,-1.3 -0.8,0.7 -1.8,0.9 -2.2,0.5 -0.7,-0.7 -1.1,-0.8 -3.7,-1.1 -0.6,0 -0.9,-0.8 -0.5,-1.6 0.3,-0.8 0.2,-1.5 -0.2,-1.5 -0.4,0 -0.8,-0.8 -0.8,-1.8 -0.1,-0.9 -0.4,-2.9 -0.8,-4.5 -0.3,-1.5 -0.8,-3.7 -1.1,-5 -0.3,-1.2 -2.5,-8.1 -5,-15.2 -2.5,-7.2 -4.7,-13.5 -4.8,-14 -0.2,-0.6 -2.4,-7.3 -5,-15 -2.6,-7.7 -5.9,-18.9 -7.5,-24.8 l -2.8,-10.9 -3.9,11.8 c -2.1,6.5 -6.5,16.9 -9.7,23.1 -5.3,10.5 -10.7,19.4 -10.9,18.3 0,-0.3 -0.3,-2.1 -0.5,-4 -0.5,-4 -1.6,-11.9 -2,-13.7 -0.6,-3.1 -5.9,-16.2 -8.2,-20.3 -1.4,-2.5 -6.7,-10.8 -11.8,-18.5 -8.7,-13.2 -14.4,-24.3 -14.4,-28.2 0,-6.1 -7.6,14.1 -13.4,35.7 -5.4,20.1 -8.5,28.4 -13.7,37.3 l -4,6.8 -3.6,-5.3 c -2,-2.9 -5.6,-7.6 -8,-10.6 -5.8,-7.1 -8.2,-12.2 -9.7,-20.1 l -1.2,-6.6 -6.1,15.5 c -13.1,33.4 -17.7,51.9 -17.7,72 -0.1,7.4 0.2,15.8 0.7,18.7 0.7,5.3 4.2,15.8 5.9,18 0.5,0.7 0.5,1.4 -0.2,1.8 -0.5,0.3 -1,0.3 -1,-0.1 0,-0.3 -0.7,-0.1 -1.5,0.6 -0.8,0.7 -1.2,1.6 -0.9,2.1 0.3,0.5 0,0.9 -0.6,0.9 -0.6,0 -0.9,0.4 -0.5,0.9 0.3,0.5 -0.4,1.2 -1.5,1.6 -1.1,0.4 -1.8,1 -1.5,1.5 0.3,0.4 -0.2,1.1 -1.1,1.4 -1,0.4 -1.3,0.2 -0.8,-0.6 0.5,-0.7 0.3,-0.8 -0.5,-0.4 -0.7,0.5 -1,1.4 -0.8,2.1 0.3,0.6 -0.4,2 -1.5,2.9 -1.6,1.4 -2.2,1.5 -3.6,0.4 -1.5,-1.2 -1.6,-1.1 -0.4,0.4 1.2,1.4 1.1,2.1 -0.2,4 -0.9,1.2 -1.6,1.8 -1.7,1.3 0,-0.6 -0.4,0 -0.9,1.2 -0.5,1.3 -1.7,2.3 -2.5,2.3 -0.9,0 -1.3,0.5 -1,1 0.4,0.6 1.2,0.7 1.8,0.3 0.7,-0.4 0.6,0.1 -0.2,1 -1,1.3 -1.7,1.4 -2.7,0.7 -0.9,-0.9 -1.2,-0.5 -1,1.5 0.2,1.4 -0.1,2.8 -0.7,3.2 -0.6,0.4 -0.7,0.1 -0.2,-0.7 0.6,-0.9 0.4,-1.1 -0.4,-0.6 -0.7,0.5 -1,1.4 -0.7,2.2 0.3,0.7 0,1.6 -0.6,2 -0.7,0.5 -0.8,0.2 -0.3,-0.6 0.6,-0.9 0.4,-1.1 -0.4,-0.6 -0.7,0.5 -1,1.4 -0.7,2.2 0.3,0.8 0,1.3 -0.7,1.1 -0.7,-0.1 -1.2,0.8 -1.1,2 0,1.2 -0.2,2.2 -0.5,2.1 -2,-0.2 -3.1,0.3 -2.6,1.2 0.3,0.5 0.1,1 -0.4,1 -0.6,0 -1.1,0.5 -1.1,1.1 0,0.5 0.5,0.7 1.2,0.3 0.7,-0.4 0.8,-0.3 0.4,0.4 -0.4,0.7 -1.4,1.2 -2.3,1.2 -1,0 -1.3,0.6 -0.9,1.6 0.4,1.1 0.2,1.5 -0.8,1.1 -1,-0.4 -1.3,-0.1 -0.9,0.8 0.3,0.8 0.9,1.2 1.4,0.9 0.5,-0.3 0.9,-0.3 0.9,0 0,0.3 -1.2,1.2 -2.8,2 -1.5,0.8 -2.1,1.5 -1.3,1.6 0.9,0 0.6,0.7 -0.9,2 -1.5,1.3 -1.8,2 -0.9,2 1.1,0 1.1,0.2 -0.1,1 -0.8,0.5 -1,1 -0.5,1 0.6,0 0.2,0.7 -0.7,1.4 -1,0.7 -1.6,2.2 -1.3,3.5 0.2,1.2 0.1,2 -0.3,1.8 -0.4,-0.3 -1.6,0.5 -2.7,1.6 -1.1,1.1 -1.5,1.7 -0.9,1.4 0.7,-0.4 1.4,0 1.7,0.8 0.4,0.9 0.1,1.2 -0.8,0.9 -1,-0.4 -1.3,0 -1,1.5 0.3,1.4 0,1.9 -0.7,1.5 -0.7,-0.5 -0.9,0 -0.5,1.5 0.3,1.4 0,2.4 -0.9,2.8 -0.8,0.3 -1.1,1 -0.7,1.6 0.4,0.7 -0.1,0.8 -1.3,0.4 -1.8,-0.7 -1.8,-0.6 -0.1,0.7 1.6,1.2 1.6,1.5 -0.5,4.2 -1.3,1.5 -1.7,2.5 -1,2.1 0.8,-0.6 1,-0.3 0.6,0.7 -0.3,0.9 -1.1,1.3 -1.8,0.9 -0.7,-0.4 -0.6,-0.1 0.2,0.9 1,1.2 0.9,1.8 -0.3,2.8 -0.9,0.7 -1.4,1.9 -1.1,2.7 0.3,0.7 0.1,1.3 -0.4,1.3 -0.6,0 -1,0.5 -1,1.1 0,0.5 0.6,0.7 1.3,0.4 0.6,-0.4 0.4,0 -0.6,0.8 -0.9,0.8 -1.7,2.4 -1.7,3.6 0,1.5 -0.4,2 -1.2,1.5 -0.8,-0.5 -0.7,0 0.2,1.1 1.4,1.7 1.3,1.8 -0.7,1.3 -2.9,-0.8 -3,0 -0.2,1 2,0.8 2,1 0.5,2.5 -1,0.9 -1.2,1.8 -0.6,2.2 1.3,0.8 -1,4.5 -2.5,3.9 -0.5,-0.3 -0.1,0.2 0.9,1 1.7,1.4 1.8,1.6 0.3,1.6 -0.9,0 -1.7,0.3 -1.8,0.7 0,0.5 -0.2,2 -0.4,3.6 -0.3,1.9 0,2.5 0.8,2 0.7,-0.4 0.6,0 -0.2,1 -0.7,0.9 -1.7,1.4 -2.2,1.1 -0.5,-0.3 -0.6,0.3 -0.2,1.2 0.4,1.2 0.3,1.5 -0.5,1 -0.7,-0.4 -1.2,-0.1 -1.2,0.8 0,0.9 -0.7,1.6 -1.5,1.6 -0.8,0 -1.5,0.6 -1.5,1.4 0,0.8 -0.7,1.7 -1.6,2 -0.9,0.3 -15.9,0.6 -33.5,0.6 H 128 V 282.7 64.4 H 72.4 C 41.8,64.5 16.7,64.7 16.6,65 Z m 329,234.2 c 7.6,6.7 14.3,14.8 17.8,21.7 2.1,3.9 1.2,5.9 -1.5,3.5 -1.8,-1.6 -1.9,-1.6 -1.3,-0.1 0.4,1.2 0.1,1.7 -1,1.7 -1,0 -1.3,-0.6 -0.9,-1.8 0.4,-1.2 -0.1,-1 -1.5,0.7 -1.5,1.6 -2.2,1.9 -2.3,1 0,-0.8 -0.4,-0.6 -0.9,0.6 -0.7,1.6 -0.9,1.7 -0.9,0.3 -0.1,-0.9 -0.5,-2 -1.1,-2.3 -0.5,-0.3 -0.7,0 -0.5,0.7 0.4,0.9 -0.4,1.4 -2.5,1.6 -2.3,0.2 -3,-0.1 -2.5,-1 0.4,-0.7 0,-0.5 -0.8,0.4 -1.1,1.4 -1.6,1.5 -2.6,0.5 -1,-0.9 -1.1,-0.8 -0.6,0.5 0.8,2 -1,2.5 -1.8,0.5 -0.4,-0.7 -0.6,-0.6 -0.6,0.5 -0.1,1.1 -0.7,1.5 -2.2,1.1 -1.2,-0.4 -2.5,0 -3,0.8 -0.7,1.1 -0.9,0.9 -0.9,-0.8 0,-1.2 0.7,-2.8 1.5,-3.6 0.8,-0.8 1.2,-1.7 0.9,-2 -0.3,-0.2 0.4,-3.5 1.4,-7.3 1.1,-4.1 1.9,-9.8 1.8,-14.2 -0.1,-3.9 0.2,-7.2 0.5,-7.2 0.3,0 2.8,1.9 5.5,4.2 z m -47,27.4 c 1.6,2.6 2.8,5.2 2.6,5.8 -0.2,0.6 0,0.8 0.3,0.4 1.1,-1.1 4.8,4 3.9,5.3 -0.4,0.7 -0.3,0.9 0.3,0.6 0.6,-0.4 1.3,-0.1 1.6,0.6 0.3,0.9 -0.3,1.3 -1.7,1.3 -1.3,-0.1 -2,0.4 -1.8,1.3 0.2,1.1 0,1.2 -1.1,0.3 -1,-0.9 -1.8,-0.8 -3.3,0.3 -1.9,1.5 -1.9,1.5 0.1,0.9 1.6,-0.5 1.7,-0.4 0.5,0.4 -1,0.8 -1.9,0.7 -2.9,-0.1 -1,-0.8 -1.2,-0.8 -0.8,-0.1 0.4,0.6 -0.3,2 -1.5,3 -1.2,1.1 -1.8,1.3 -1.4,0.6 0.4,-0.6 0.2,-1.2 -0.3,-1.2 -0.6,0 -1.1,0.4 -1.1,1 0,0.5 -0.9,1.4 -1.9,1.9 -1.8,1 -1.8,0.9 0,-7.2 1,-4.5 2.1,-8.9 2.3,-9.7 0.2,-0.8 0.7,-3.4 1.1,-5.8 0.4,-2.3 1,-4.2 1.4,-4.2 0.5,0 2.1,2.1 3.7,4.6 z M 622,360 c 1.2,0.7 1,0.9 -0.8,0.7 -1.2,0 -2.2,-0.5 -2.2,-0.9 0,-1.1 1.2,-1 3,0.2 z m -357,8 c 0,0.5 -0.5,1 -1.1,1 -0.5,0 -0.7,-0.5 -0.4,-1 0.3,-0.6 0.8,-1 1.1,-1 0.2,0 0.4,0.4 0.4,1 z m 372,15.3 c 2.1,1.4 2.9,3.1 1.8,3.4 -0.5,0.2 -0.9,0 -1,-0.5 -0.4,-1.7 -3.7,-4.4 -4.7,-3.8 -0.7,0.4 -0.8,0.1 -0.5,-0.8 0.3,-0.9 -0.1,-2.3 -1,-3.1 -0.9,-0.9 -1.6,-2.1 -1.6,-2.8 0,-0.6 1.1,0.4 2.4,2.2 1.3,1.7 3.5,4.6 4.6,5.4 z m 16.5,20.7 c 0,0.8 -0.9,1.6 -2,1.8 -2,0.3 -2,0.3 0,-0.9 1.9,-1.2 1.9,-1.2 0,-2.1 -2,-0.8 -2,-0.8 0,-0.5 1.1,0.1 2,0.9 2,1.7 z m -2.5,4 c 0,0.5 -0.5,1 -1.1,1 -0.5,0 -0.7,-0.5 -0.4,-1 0.3,-0.6 0.8,-1 1.1,-1 0.2,0 0.4,0.4 0.4,1 z m 2.4,2.9 c 0.4,0.5 -0.1,0.8 -0.9,0.7 -2.1,-0.3 -3.1,-1.6 -1.2,-1.6 0.9,0 1.8,0.4 2.1,0.9 z m -15.2,30.5 c 0.7,-0.4 0.8,-0.3 0.4,0.4 -0.4,0.7 -0.1,1.2 0.9,1.2 0.9,0 1.4,-0.4 1.1,-0.9 -0.3,-0.5 0.1,-1.4 1,-2.1 0.8,-0.7 1.3,-1.9 1,-2.7 -0.4,-1.1 2.9,-2.1 2.2,-1.7 -0.7,0.4 -0.5,-0.2 0.5,-1.3 1.8,-2.1 1.8,-2.2 0,-3.3 -1.5,-1 -1.6,-1.1 -0.1,-0.6 1,0.3 -8.6,12 -7,11 z M 641,438 c 0,0.5 -0.5,1 -1.1,1 -0.5,0 -0.7,-0.5 -0.4,-1 0.3,-0.6 0.8,-1 1.1,-1 0.2,0 0.4,0.4 0.4,1 z m -24.6,21.6 c 1.8,1.8 -3.4,2.2 -5.1,0.7 -1.4,-1 -1,-1 1.4,0.2 4.3,2 5.1,1.9 2.3,-0.5 -1.3,-1.1 -1.8,-2 -1.2,-2 0.6,0 1.8,0.7 2.6,1.6 z m -163.9,20 c 1.5,0.3 2.4,0.1 2.1,-0.5 -0.7,-1 2,-0.9 3,0.2 0.4,0.4 1.3,0.2 2,-0.4 0.8,-0.7 1.4,-0.7 1.9,0.1 0.3,0.6 1.1,0.7 1.7,0.4 0.6,-0.4 2,0.6 2.8,0.1 0.6,-0.4 0.9,-0.1 0.8,0.7 -0.2,0.7 0.6,1.3 1.7,1.3 1.4,0 1.9,0.6 1.7,2 -0.3,2 -0.2,2 1.4,0 1.1,-1.4 1.5,-1.6 1.4,-0.5 -0.5,3.5 3.1,2 3.1,2.4 0.1,0.3 0.2,1 0.3,1.4 0.2,1.3 3.3,4.2 4,3.7 0.3,-0.3 0.4,-0.2 0.1,0.1 -0.59999,0.90002 4.3,5.9 3.9,5.2 -0.5,-0.7 -0.3,-0.8 0.6,-0.3 1,0.6 0.5,3.5 1.1,3.5 0.8,0 0.8,0.5 -0.1,1.5 -1,1.2 -0.9,1.6 0.4,2.1 0.9,0.3 1.3,1 1,1.5 -0.3,0.6 0,1.7 0.8,2.6 0.9,1.2 0.9,1.5 0.1,0.9 -0.7,-0.4 -1.3,-0.2 -1.3,0.3 0,0.6 0.5,1.1 1.2,1.1 0.6,0 0.3,0.7 -0.8,1.6 -1,0.8 -1.3,1.2 -0.5,0.8 0.9,-0.5 1.2,-0.3 0.7,0.4 -0.4,0.7 -0.1,1.2 0.6,1.2 1,0 1,0.2 0,0.9 -0.8,0.4 -1.4,1.2 -1.4,1.6 0,0.4 0.6,1.2 1.4,1.6 0.7,0.5 0.9,0.9 0.3,0.9 -1.4,0 -3,-1.3 -3.3,-2.8 -0.1,-0.6 -7.5,-10 -7.9,-11 -0.2,-0.6 -1.1,-1.2 -1.8,-1.2 -0.8,0 -1.7,-0.5 -2.1,-1.2 -0.4,-0.7 -0.3,-0.8 0.4,-0.4 0.7,0.4 1.2,0.1 1.2,-0.8 0,-1 -0.7,-1.3 -2.1,-1.1 -1.2,0.3 -1.9,0.2 -1.6,-0.2 0.8,-0.7 -4,-4.6 -4.8,-4.6 -1.1,0 -1.2,-0.4 -0.4,-1.3 0.7,-0.9 0.5,-1.4 -1,-1.9 -1.2,-0.3 -2.5,-0.4 -3.1,0 -0.5,0.3 -0.7,0 -0.4,-0.9 0.4,-1 0,-1.3 -1.3,-1.1 -1,0.2 -1.8,0.4 -1.8,0.5 0,0.1 -0.8,0.3 -1.8,0.5 -0.9,0.2 -1.5,-0.1 -1.2,-0.5 0.3,-0.5 0.1,-1.1 -0.4,-1.4 -0.5,-0.4 -1.3,-0.1 -1.6,0.5 -0.4,0.6 -1.8,0.8 -3.2,0.4 -1.6,-0.4 -2.2,-0.2 -1.8,0.5 0.3,0.5 0.1,1 -0.4,1 -0.6,0 -2.5,1.1 -3,1.4 -0.5,0.4 -2.2,1.5 -3,2 -0.6,0.4 -2.9,1.3 -4,2.3 -1.1,0.9 -1.8,2 -1.5,2.5 0.3,0.5 0.2,0.8 -0.3,0.7 -0.4,-0.1 -1,0 -1.3,0.1 -1.5,0.6 -7.9,0.6 -7.4,-0.1 0.2,-0.4 0,-1 -0.6,-1.4 -0.5,-0.3 4,-6.5 4.9,-5.3 0,0 4.4,-6.2 4.9,-6.2 0.6,0 1.8,-1 1.2,-2.2 -0.9,-1.9 -0.9,-2.1 0.2,-0.8 0.7,0.8 2.8,-0.9 2.8,-1.5 0,-0.5 0.5,-0.2 1.1,0.7 0.5,1 7.2,-0.7 5.9,-3.4 -0.9,-1.7 2.2,-0.6 4.5,-0.2 z m -248.8,6.9 c 0,0.8 -0.4,1.2 -0.9,0.9 -0.5,-0.3 -0.6,-1 -0.3,-1.5 0.9,-1.3 1.2,-1.1 1.2,0.6 z m 276.8,19.9 c -0.7,-0.3 -1.5,-0.1 -1.8,0.3 -0.3,0.5 5.2,5.5 5.3,5.8 0.1,0.3 0.3,1.3 0.4,2.3 0,1.1 0.7,2.6 1.3,3.4 0.7,0.8 1,2.5 0.7,3.9 -0.3,1.3 -0.0734,6.06441 -0.0734,6.96441 -0.1,0.9 -25.16854,21.59364 -24.76854,19.59364 0.4,-1.5 -0.15805,-2.35805 -1.15805,-1.95805 -0.8,0.3 -1.4,-0.1 -1.4,-0.8 0,-0.7 0.3,-0.9 0.7,-0.6 0.9,0.9 3.4,-2.8 3,-4.5 -0.2,-0.7 -0.2,-1 0,-0.6 0.7,1.2 3.3,0.9 3.3,-0.3 0,-0.5 -0.5,-0.7 -1.1,-0.3 -0.8,0.4 -0.8,0.1 -0.1,-1.2 0.5,-1.1 1.2,-2.6 1.6,-3.4 0.3,-0.8 0.4,-0.3 0.1,1.2 -0.4,2.2 2.1,-1.3 3.2,-2.4 1.8,-2 1.8,-2.1 -0.7,-1.4 -1.4,0.3 -1.9,0.3 -1.2,0 0.6,-0.3 0.9,-1 0.6,-1.6 -0.4,-0.6 5.7,-2 4.6,-3.3 -1.1,-1.3 -1,-1.4 0.6,-0.8 1.7,0.6 1.8,0.5 0.4,-1.3 -1.1,-1.5 -1.1,-1.6 0,-0.7 1.8,1.6 -1.4,-1.4 -0.3,-2.8 0.7,-0.9 0.9,-2 0.5,-2.4 -0.4,-0.5 -0.2,-0.5 0.4,-0.2 1.5,0.9 1.9,-2.3 1.3,-2.3 -0.8,0 -0.8,-0.4 0.1,-1.5 0.6,-0.8 0.9,-1.9 0.6,-2.4 -0.4,-0.5 0.3,-1.9 1.5,-3 l 2.2,-2 -2.9,0.4 c -1.6,0.2 -2.3,0.1 -1.5,-0.2 1.1,-0.5 1.1,-0.7 0,-1.5 -1.1,-0.8 -1,-0.9 0.3,-0.5 1.9,0.7 6.4,0.9 4.3,0.1 z m -198.8,35.4 c -1,1 6.8,-1.3 7.1,1.6 0,1.1 0.2,4.7 0.3,8.3 0,2.6 0.2,8.5 0.2,13 0.1,5.6 -0.2,8.4 -1,8.7 -0.6,0.3 -1.3,0 -1.5,-0.5 -0.6,-1.7 -4.3,-1.7 -5,0 -0.6,1.4 -0.7,1.4 -0.7,-0.2 -0.1,-0.9 -0.8,-1.7 -1.7,-1.7 -0.9,0 -1.2,0.5 -0.8,1.2 0.6,1 0.4,1 -0.7,0.2 -0.8,-0.6 -3,-1.1 -4.9,-1.1 -2.1,0 -3.4,-0.5 -3.2,-1.2 0.1,-0.7 -1.5,-1.1 -4.3,-1.2 -6.8,-0.2 -9.8,-1.7 -10.6,-3 -1.4,-2 -0.6,-24.2 0.8,-24.6 0.6,-0.2 17.2,1.2 17.9,0.6 0.8,-0.7 1.4,-0.7 1.9,0.1 0.3,0.5 2.4,0.6 2,0.1 -0.3,-0.6 0.4,-0.8 1.5,-0.6 1.2,0.2 2.3,-0.2 2.7,-1.1 0.3,-0.8 0.8,-1.2 1.1,-0.9 0.3,0.2 -0.2,1.3 -1.1,2.3 z M 482,539.6 c 0,0.8 -1.9,1.3 -2.4,0.6 -0.3,-0.5 0.1,-0.9 0.9,-0.9 0.8,0 1.5,0.2 1.5,0.3 z m -214.7,1.8 c 0.3,-0.3 -9,-0.2 -7.4,0.1 1,0.2 2.4,-0.1 3.2,-0.5 0.7,-0.5 1.8,-0.5 2.5,0 0.6,0.6 1.3,0.7 1.7,0.4 z m 5.7,-1 c 0,0.2 -0.9,0.6 -2,0.9 -1.1,0.3 -1.8,0.1 -1.4,-0.4 0.5,-0.9 3.4,-1.3 3.4,-0.5 z m 187.4,2.6 c -0.6,0.6 -1,0.3 -1,-1 0,-1.3 0.4,-1.6 1,-1 0.7,0.7 0.7,1.3 0,2 z m -175,29.8 c 0.3,0.5 -0.1,0.9 -0.9,0.9 -0.8,0 -1.2,-0.4 -0.9,-0.9 0.3,-0.4 0.7,-0.8 0.9,-0.8 0.2,0 0.6,0.4 0.9,0.8 z m 67.1,42.6 c 0.9,0.3 -0.9,-0.4 0,0 z m -65.9,3.3 c 1.4,0.2 2.3,0 2,-0.5 -0.3,-0.5 0.2,-0.9 1,-0.9 1,0 1.1,0.4 0.5,1 -0.7,0.7 -5.1,1 -5.1,1.6 0,0.6 -4.8,0.2 -5.1,0.2 -0.9,-0.1 -0.7,-3.1 0.3,-3.1 0.4,0 0.8,0.7 0.8,1.6 0,0.8 0.5,1.2 1,0.9 0.7,-0.4 0.6,-1.4 -0.1,-2.8 -1,-2.1 -1,-2.1 0.6,-0.2 0.8,1 2.7,2.1 4.1,2.2 z m 33.2,-0.3 c -0.5,-0.3 0.5,0.3 0,0 z"
     sodipodi:nodetypes="ccccsccccssccccscccccccsccsscccsccccsccsscccsccccccsccccccccccccccccccsccsccccscccccccccccccsccsccscscsscccscsscccccsscsccccscccsscccccsscccsccscsssssccsccccccccssccsccccccsscsscccsscscscccccccssccccccccccccscscccccccsccscsccsccccccccccscsccscccccscccccccccsccccccccccccsssscscccccccccccscccccsccccccsccccssssscscssccsscscccscccccccccccccscccssccsscccccccsccccsccssssscccccccscsscccccccccccccccsscccsccsccccccccccscccsscsscscccscsscssccccscsccsccccssscssccsccsssccsccccsscssccccscccccccccscccccccccscccccsscccscscsccssssccscccccsccccccscccscccccsccscccsscsccsccccccscccsccccccccsccccccsccccccsccccccccccsccscccccccccccscsscccccsscssssscscsccccsssscssccccss" />
  <path
     style="fill:#000000;stroke:none;stroke-width:0.1"
     inkscape:connector-curvature="0"
     id="path146"
     d="m 369.6,613.8 c -0.2,0.4 -0.1,1.4 0.3,2.1 0.6,1 1,0.9 1.4,-0.3 0.6,-1.6 -0.8,-3.2 -1.7,-1.8 z" />
</svg>
